<svg width="69" height="69" viewBox="0 0 69 69" fill="none" xmlns="http://www.w3.org/2000/svg">
<circle cx="34.5" cy="34.5" r="34.5" fill="#D9D9D9"/>
<path d="M28.3516 41H20.2734V29.75H23.375V39.5703H28.3516V41ZM41 35.3594C41 36.2656 40.8438 37.0833 40.5312 37.8125C40.2188 38.5365 39.7865 39.151 39.2344 39.6562C38.6823 40.1615 38.0286 40.5495 37.2734 40.8203C36.5182 41.0911 35.7005 41.2266 34.8203 41.2266C33.9401 41.2266 33.1224 41.0911 32.3672 40.8203C31.612 40.5495 30.9583 40.1615 30.4062 39.6562C29.8542 39.151 29.4219 38.5365 29.1094 37.8125C28.7969 37.0833 28.6406 36.2656 28.6406 35.3594C28.6406 34.4375 28.7943 33.6146 29.1016 32.8906C29.4141 32.1615 29.8438 31.5469 30.3906 31.0469C30.9427 30.5417 31.5964 30.1562 32.3516 29.8906C33.1068 29.6198 33.9297 29.4844 34.8203 29.4844C35.7109 29.4844 36.5339 29.6198 37.2891 29.8906C38.0443 30.1562 38.6953 30.5417 39.2422 31.0469C39.7943 31.5469 40.224 32.1615 40.5312 32.8906C40.8438 33.6146 41 34.4375 41 35.3594ZM37.8438 35.3594C37.8438 35.0156 37.8281 34.6641 37.7969 34.3047C37.7656 33.9453 37.7083 33.5964 37.625 33.2578C37.5417 32.9193 37.4271 32.6016 37.2812 32.3047C37.1406 32.0078 36.9583 31.75 36.7344 31.5312C36.5104 31.3073 36.2396 31.1328 35.9219 31.0078C35.6094 30.8776 35.2422 30.8125 34.8203 30.8125C34.3932 30.8125 34.0208 30.8776 33.7031 31.0078C33.3854 31.1328 33.1146 31.3047 32.8906 31.5234C32.6667 31.7422 32.4844 32 32.3438 32.2969C32.2031 32.5938 32.0911 32.9115 32.0078 33.25C31.9297 33.5833 31.875 33.9323 31.8438 34.2969C31.8125 34.6562 31.7969 35.0104 31.7969 35.3594C31.7969 35.7031 31.8125 36.0547 31.8438 36.4141C31.875 36.7734 31.9323 37.1224 32.0156 37.4609C32.099 37.7943 32.2109 38.1094 32.3516 38.4062C32.4974 38.7031 32.6823 38.9635 32.9062 39.1875C33.1302 39.4062 33.3984 39.5807 33.7109 39.7109C34.0286 39.8411 34.3984 39.9062 34.8203 39.9062C35.2318 39.9062 35.5911 39.8411 35.8984 39.7109C36.2057 39.5755 36.4714 39.3958 36.6953 39.1719C36.9193 38.9427 37.1042 38.6797 37.25 38.3828C37.401 38.0807 37.5182 37.763 37.6016 37.4297C37.6901 37.0911 37.7526 36.7448 37.7891 36.3906C37.8255 36.0365 37.8438 35.6927 37.8438 35.3594ZM51.0078 41H42.9297V29.75H46.0312V39.5703H51.0078V41Z" fill="black"/>
</svg>
